<?xml version="1.0" encoding="utf-8"?>
<!-- Generator: Adobe Illustrator 17.1.0, SVG Export Plug-In . SVG Version: 6.00 Build 0)  -->
<!DOCTYPE svg PUBLIC "-//W3C//DTD SVG 1.1//EN" "http://www.w3.org/Graphics/SVG/1.1/DTD/svg11.dtd">
<svg version="1.1" id="Layer_1" xmlns="http://www.w3.org/2000/svg" xmlns:xlink="http://www.w3.org/1999/xlink" x="0px" y="0px"
	 width="302px" height="54px" viewBox="0 0 302 54" enable-background="new 0 0 302 54" xml:space="preserve">
<path fill="#FFFFFF" d="M6.5,27.1c0-9.5,2-17,3.1-20.3l8.1-0.4V0L5,0.6L4.2,2.5C4,2.9,0,12.9,0,27.1s4,24.2,4.2,24.6l0.8,2L17.6,54
	v-6.4l-8.1-0.2C8.4,44.1,6.5,36.6,6.5,27.1z M27.7,32c0.4-0.8,0.8-1.7,1.2-2.6c2.6-5.8,4.7-12,5-13.1l-6.8-0.2
	c-0.7,1.9-1.8,5-3.1,8.1c-1.3-3.2-2.3-6.2-2.9-8.1l-6.7,0.3c0.4,1.4,2.3,7.5,4.8,13.1c1.7,3.7,3.8,7.7,5.2,10.3l7.3-0.1
	C31.8,39.6,29.8,36.1,27.7,32z M44.7,2.5L44,0.6L31.3,0v6.4l8.1,0.4c1.1,3.4,3.1,10.9,3.1,20.3s-2,16.9-3,20.3l-8.1,0.2V54L44,53.7
	l0.8-2C45,51.3,49,41.3,49,27.1C48.9,12.9,44.9,2.9,44.7,2.5z M88.1,10.1c4.8,0,9,1.2,12.4,3.7L97,19.1c-3.1-1.9-6-2.8-8.7-2.8
	c-1.5,0-2.8,0.4-3.7,1.2c-1,0.8-1.4,1.8-1.4,3c0,1,0.3,1.7,0.9,2.2s1.7,1,3.2,1.5l4.5,1.2c6.3,1.7,9.4,5.3,9.4,10.9
	c0,3.7-1.4,6.7-4.2,9c-2.8,2.3-6.5,3.4-11.2,3.4c-4.5,0-8.8-1.1-12.7-3.3l2.8-5.8c3.8,2,7.2,3,10.2,3c4.4,0,6.5-1.7,6.5-5
	c0-2.3-1.6-3.9-4.9-4.8l-4.1-1.1c-3.6-1-6-2.5-7.3-4.7c-1-1.7-1.6-3.6-1.6-5.6c0-3.3,1.2-6.1,3.7-8.2C81,11.2,84.2,10.1,88.1,10.1z
	 M107.9,29.1c0-3.4-0.3-5.7-1-6.9l6.5-1.7c0.4,0.6,0.7,1.6,1,2.7c1.9-1.8,4.2-2.7,6.7-2.7c2.2,0,4.1,0.7,5.6,2.2
	c0.3,0.3,0.6,0.7,1.1,1.3c2.4-2.4,4.9-3.5,7.8-3.5c2.4,0,4.3,0.7,5.7,2c1.2,1.1,1.8,3.2,1.8,6.3V48h-7V30.1c0-1.4-0.1-2.3-0.2-2.6
	c-0.3-0.8-1-1.2-2-1.2c-1.5,0-3.1,0.8-4.8,2.3V48h-6.8V30.4c0-1.4-0.1-2.4-0.3-2.9c-0.3-0.9-1.1-1.3-2.2-1.3c-1.6,0-3.1,0.7-4.7,2.1
	V48h-7V29.1H107.9z M152.6,29.2l-3.1-5.1c1.3-0.8,2.8-1.5,4.4-2.2c2.6-1.1,5.1-1.6,7.5-1.6c4.8,0,7.7,1.6,8.8,4.7
	c0.4,1,0.5,2.6,0.5,4.9l-0.2,9.1v0.5c0,1.4,0.1,2.5,0.4,3.2c0.4,0.8,1.1,1.6,2.1,2.4l-3.8,4.3c-1.9-0.8-3.1-1.9-3.9-3.3
	c-0.7,0.7-1.3,1.2-1.7,1.4c-1.4,1-3.2,1.5-5.5,1.5c-3,0-5.4-0.7-7-2.2s-2.4-3.5-2.4-6.3c0-6.2,4.4-9.3,13.2-9.3c0.6,0,1.1,0,1.6,0.1
	v-1.1c0-1.6-0.2-2.6-0.6-3.2c-0.4-0.6-1.3-0.8-2.6-0.8C158.4,26.2,155.7,27.2,152.6,29.2z M163.6,42l0.1-5.8h-0.3
	c-2.5,0-4.3,0.3-5.2,0.9c-1,0.6-1.4,1.7-1.4,3.3c0,1.1,0.3,1.9,0.9,2.6c0.6,0.7,1.3,1,2.3,1C161.2,43.8,162.4,43.2,163.6,42z
	 M178.8,29.9c0-3.5-0.3-6.2-1-7.9l6.4-1.7c0.6,1.1,1,2.4,1.1,3.9c1.1-1.5,2.5-2.7,4.1-3.4c0.6-0.3,1.4-0.4,2.4-0.4
	c0.9,0,1.7,0.2,2.7,0.6l-2,6.2c-0.7-0.4-1.4-0.5-2.1-0.5c-1.6,0-3.1,0.8-4.4,2.3v19h-7.2V29.9z M205,20.9h6.4l-1.8,4.7H205v13.8
	c0,1.7,0.2,2.9,0.6,3.5c0.4,0.6,1.2,0.9,2.5,0.9c0.5,0,1.4-0.2,2.6-0.5l0.9,4.2c-2,0.8-3.9,1.2-5.8,1.2c-1.8,0-3.4-0.4-4.7-1.1
	c-1.3-0.7-2.2-1.7-2.7-2.9c-0.3-0.9-0.5-2.3-0.5-4.2V25.6h-2.7V21h2.7c0-3,0.1-5.1,0.3-6.4l7.3-1.8C205.2,15.4,205,18.1,205,20.9z
	 M215.2,48V11.3h21.2l-1,6h-12.7v8.5h10.7v6h-10.6v9.8h14.1V48H215.2z M258.1,8.8l7.1,1.1v28.2c0,5.1,0.3,8.4,1,9.9h-6.4
	c-0.2-0.4-0.3-0.9-0.4-1.6c-1.7,1.5-3.9,2.3-6.3,2.3c-3.5,0-6.2-1.2-8.3-3.7s-3.1-5.8-3.1-10s1.1-7.7,3.3-10.3s5-4,8.5-4
	c2,0,3.6,0.5,4.9,1.5c-0.1-0.8-0.2-2.1-0.2-4V8.8H258.1z M258.3,41V28.1c-1.3-1.2-2.6-1.7-3.9-1.7c-3.1,0-4.6,2.9-4.6,8.7
	c0,2.9,0.4,4.9,1.1,6c0.7,1.1,2,1.7,3.9,1.7C256.1,42.7,257.3,42.1,258.3,41z M272.5,13.5c0-1.2,0.4-2.2,1.3-3.1
	c0.9-0.9,1.9-1.3,3.2-1.3c1.2,0,2.2,0.4,3.1,1.3c0.8,0.8,1.3,1.9,1.3,3.1s-0.4,2.2-1.3,3.1c-0.9,0.9-1.9,1.3-3.2,1.3
	c-1.2,0-2.2-0.4-3.1-1.3C272.9,15.7,272.5,14.7,272.5,13.5z M273.3,48V21.4l7.2-1.1V48H273.3z M295.4,20.9h6.4l-1.8,4.7h-4.6v13.8
	c0,1.7,0.2,2.9,0.6,3.5s1.2,0.9,2.5,0.9c0.5,0,1.4-0.2,2.6-0.5l0.9,4.2c-2,0.8-3.9,1.2-5.8,1.2c-1.8,0-3.4-0.4-4.7-1.1
	c-1.3-0.7-2.2-1.7-2.7-2.9c-0.3-0.9-0.5-2.3-0.5-4.2V25.6h-2.7V21h2.7c0-3,0.1-5.1,0.3-6.4l7.3-1.8
	C295.6,15.4,295.4,18.1,295.4,20.9z"/>
</svg>
